<svg width="9" height="9" version="1.1" viewBox="0 0 9 9" xmlns="http://www.w3.org/2000/svg">
	<path d="m4.5 1c-1.9271 0-3.5 1.5729-3.5 3.5s1.5729 3.5 3.5 3.5c0.78385 0 1.5091-0.26075 2.0938-0.69922l1.6992 1.6992 0.70703-0.70703-1.6992-1.6992c0.43847-0.58464 0.69922-1.3099 0.69922-2.0938 0-1.9271-1.5729-3.5-3.5-3.5zm0 1c1.3866 0 2.5 1.1134 2.5 2.5s-1.1134 2.5-2.5 2.5-2.5-1.1134-2.5-2.5 1.1134-2.5 2.5-2.5zm0 0.75v0.5c0.69332 0 1.25 0.55668 1.25 1.25h0.5c0-0.96354-0.78646-1.75-1.75-1.75z"/>
</svg>
